<?xml version="1.0" standalone="no"?>
<!DOCTYPE svg PUBLIC "-//W3C//DTD SVG 20010904//EN"
 "http://www.w3.org/TR/2001/REC-SVG-20010904/DTD/svg10.dtd">
<svg version="1.0" xmlns="http://www.w3.org/2000/svg"
 width="512.000000pt" height="512.000000pt" viewBox="0 0 512.000000 512.000000"
 preserveAspectRatio="xMidYMid meet">
<metadata>
Created by potrace 1.14, written by Peter Selinger 2001-2017
</metadata>
<g transform="translate(0.000000,512.000000) scale(0.100000,-0.100000)"
fill="#000000" stroke="none">
<path d="M1160 5097 c0 -4 29 -115 60 -232 12 -44 23 -87 25 -95 2 -8 26 -98
53 -200 27 -102 53 -198 57 -215 5 -16 9 -146 10 -287 2 -142 3 -262 4 -267 0
-4 13 -8 29 -9 15 0 37 0 50 -1 l23 -1 -19 -27 c-10 -16 -25 -41 -34 -58 -12
-26 -93 -178 -228 -430 -151 -282 -309 -582 -312 -592 -2 -6 33 -49 78 -94
314 -327 619 -735 831 -1114 68 -121 215 -428 249 -518 9 -23 22 -55 29 -72
32 -79 125 -369 139 -435 3 -14 18 -88 34 -165 28 -132 40 -207 41 -247 1 -17
21 -18 280 -18 l278 0 8 58 c9 77 18 128 41 232 3 14 7 34 8 45 9 54 60 236
105 370 85 256 251 618 380 828 22 37 41 70 41 73 0 2 5 10 10 17 6 7 54 80
108 162 169 258 383 527 615 771 l95 100 -50 94 c-50 96 -122 231 -186 350
-78 145 -112 209 -159 300 -55 104 -131 247 -173 325 l-27 50 51 0 51 0 1 270
c1 241 3 278 22 345 11 41 41 152 66 245 24 94 61 230 80 303 20 74 36 135 36
138 0 2 -630 4 -1400 4 -770 0 -1400 -2 -1400 -3z"/>
</g>
</svg>
